<svg width="209" height="209" viewBox="0 0 209 209" fill="none" xmlns="http://www.w3.org/2000/svg">
<path d="M155.427 144.181L155.135 144.532L155.458 144.855L205.528 194.915C206.224 195.611 206.777 196.439 207.154 197.349C207.531 198.26 207.725 199.236 207.725 200.221C207.725 201.207 207.531 202.182 207.154 203.093C206.777 204.003 206.224 204.831 205.527 205.527C204.831 206.224 204.003 206.777 203.093 207.154C202.182 207.531 201.207 207.725 200.221 207.725C199.236 207.725 198.26 207.531 197.349 207.154C196.439 206.777 195.611 206.224 194.915 205.528L144.855 155.458L144.532 155.135L144.181 155.427C126.857 169.857 104.637 177.052 82.1424 175.517C59.6482 173.981 38.6121 163.832 23.41 147.181C8.20792 130.531 0.0103659 108.66 0.522641 86.1195C1.03492 63.5787 10.2176 42.1032 26.1604 26.1604C42.1032 10.2176 63.5787 1.03492 86.1195 0.522641C108.66 0.0103659 130.531 8.20792 147.181 23.41C163.832 38.6121 173.981 59.6482 175.517 82.1424C177.052 104.637 169.857 126.857 155.427 144.181ZM15.721 88.221V88.2216C15.7424 107.443 23.3875 125.871 36.9792 139.463C50.5708 153.055 68.999 160.7 88.2205 160.721H88.221C102.56 160.721 116.577 156.469 128.5 148.503C140.422 140.536 149.715 129.213 155.202 115.966C160.69 102.718 162.125 88.1406 159.328 74.077C156.531 60.0134 149.626 47.0951 139.486 36.9558C129.347 26.8165 116.429 19.9115 102.365 17.1141C88.3015 14.3167 73.7241 15.7524 60.4765 21.2398C47.2288 26.7271 35.9059 36.0196 27.9395 47.9422C19.9731 59.8647 15.721 73.8819 15.721 88.221Z" fill="black" stroke="black"/>
</svg>
